<svg width="25" height="25" viewBox="0 0 25 25" fill="none" xmlns="http://www.w3.org/2000/svg">
<path d="M24.7763 12.7737C24.7773 11.9559 24.7068 11.1396 24.5654 10.3337H13.0192V14.9553H19.6323C19.497 15.6934 19.2106 16.397 18.7903 17.0237C18.3701 17.6504 17.8247 18.1872 17.187 18.6018V21.6017H21.1339C23.4448 19.5134 24.7763 16.4252 24.7763 12.7737Z" fill="#4285F4"/>
<path d="M13.0191 24.4999C16.3232 24.4999 19.1051 23.4366 21.1338 21.6033L17.187 18.6034C16.0885 19.3334 14.6737 19.75 13.0191 19.75C9.82564 19.75 7.11507 17.6401 6.1458 14.7969H2.07996V17.8884C3.099 19.8758 4.66158 21.5465 6.59327 22.714C8.52495 23.8815 10.7497 24.4998 13.0191 24.4999Z" fill="#34A853"/>
<path d="M6.14586 14.797C5.63344 13.3071 5.63344 11.6937 6.14586 10.2038V7.11224H2.08002C1.22276 8.78411 0.776306 10.6293 0.776306 12.5004C0.776306 14.3715 1.22276 16.2167 2.08002 17.8886L6.14586 14.797Z" fill="#FBBC04"/>
<path d="M13.0191 5.25063C14.7652 5.22267 16.4523 5.86924 17.7159 7.05057L21.2103 3.62568C18.9945 1.58588 16.0589 0.46599 13.0191 0.500787C10.7497 0.500889 8.52495 1.11919 6.59327 2.28667C4.66158 3.45414 3.099 5.12484 2.07996 7.11224L6.1458 10.2038C7.11507 7.36056 9.82564 5.25063 13.0191 5.25063Z" fill="#EA4335"/>
</svg>
